<?xml version="1.0" encoding="utf-8"?>
<!-- Generator: Adobe Illustrator 25.0.0, SVG Export Plug-In . SVG Version: 6.00 Build 0)  -->
<svg version="1.1" id="Layer_1" xmlns="http://www.w3.org/2000/svg" xmlns:xlink="http://www.w3.org/1999/xlink" x="0px" y="0px"
	 viewBox="0 0 24 24" style="enable-background:new 0 0 24 24;" xml:space="preserve">
<style type="text/css">
	.st0{fill:#B9BBBE;}
</style>
<path class="st0" d="M19,3h-2.7H7.7H5C3.9,3,3,3.9,3,5v2.7v8.7V19c0,1.1,0.9,2,2,2h2.7h8.7H19c1.1,0,2-0.9,2-2v-2.7V7.7V5
	C21,3.9,20.1,3,19,3 M15.6,17L12,13.4L8.4,17L7,15.6l3.6-3.6L7,8.4L8.4,7l3.6,3.6L15.6,7L17,8.4L13.4,12l3.6,3.6L15.6,17z"/>
</svg>
