<?xml version="1.0" encoding="utf-8"?>
<!-- Generator: Adobe Illustrator 25.0.0, SVG Export Plug-In . SVG Version: 6.00 Build 0)  -->
<svg version="1.1" id="Layer_1" xmlns="http://www.w3.org/2000/svg" xmlns:xlink="http://www.w3.org/1999/xlink" x="0px" y="0px"
	 viewBox="0 0 33 33" style="enable-background:new 0 0 33 33;" xml:space="preserve">
<style type="text/css">
	.st0{fill:#FFFFFF;}
</style>
<image style="display:none;overflow:visible;enable-background:new    ;" width="654" height="607" xlink:href="CDFBA196.jpeg"  transform="matrix(4.153081e-02 0 0 4.153081e-02 3.4849 6.1143)">
</image>
<path class="st0" d="M27.7,18.6c-0.7,0-1.4,0.3-1.8,0.8l-4.9-2c0-0.3,0.1-0.5,0.1-0.8c0-1-0.3-1.8-0.7-2.6L25,9.4
	c0.5,0.3,1,0.4,1.6,0.4c1.9,0,3.5-1.6,3.5-3.5s-1.6-3.5-3.5-3.5s-3.5,1.6-3.5,3.5c0,0.6,0.2,1.2,0.5,1.7l-4.5,4.5
	c-0.8-0.6-1.9-1-3-1c-1.1,0-2.1,0.4-3,1l-2.4-1.7c0.2-0.5,0.4-1,0.4-1.5c0-1.9-1.6-3.5-3.5-3.5S4.1,7.4,4.1,9.3s1.6,3.5,3.5,3.5
	c0.7,0,1.3-0.2,1.9-0.6l2.3,1.7c-0.5,0.8-0.8,1.7-0.8,2.7c0,1.1,0.4,2.2,1,3l-2.9,2.9c-0.6-0.4-1.3-0.6-2.1-0.6
	c-2.3,0-4.1,1.9-4.1,4.1c0,2.3,1.8,4.1,4.1,4.1c2.3,0,4.1-1.9,4.1-4.1c0-0.8-0.2-1.5-0.6-2.1l3-3c0.8,0.5,1.6,0.7,2.6,0.7
	c0.3,0,0.6,0,0.9-0.1l2.2,5.2c-0.2,0.3-0.3,0.7-0.3,1.1c0,1.3,1,2.3,2.3,2.3c1.3,0,2.3-1,2.3-2.3s-1-2.3-2.3-2.3c-0.1,0-0.3,0-0.4,0
	l-2-4.7c0.7-0.4,1.2-1,1.6-1.7l4.9,2c0.1,1.2,1.1,2.2,2.4,2.2c1.3,0,2.4-1.1,2.4-2.4C30.1,19.6,29,18.6,27.7,18.6z"/>
</svg>
