<?xml version="1.0" encoding="utf-8"?>
<!-- Generator: Adobe Illustrator 25.0.0, SVG Export Plug-In . SVG Version: 6.00 Build 0)  -->
<svg version="1.1" id="Layer_1" xmlns="http://www.w3.org/2000/svg" xmlns:xlink="http://www.w3.org/1999/xlink" x="0px" y="0px"
	 viewBox="0 0 62 62" style="enable-background:new 0 0 62 62;" xml:space="preserve">
<style type="text/css">
	.st0{fill:#B9BBBE;}
	.st1{fill:#36383F;}
	.st2{fill:#37393F;}
	.st3{fill:#36393F;}
</style>
<g>
	<path class="st0" d="M28.71,36.71c-2.99,2.98-5.98,5.96-8.97,8.95c-0.39,0.34-0.23,0.7-0.02,1.06c0.56,1.93,0.43,3.86,0,5.79
		c-0.16,0.27-0.24,0.59-0.48,0.82c-2.67,5.83-10.23,7.15-14.68,2.56c-0.4-0.41-0.76-0.85-1.14-1.27c-0.24-0.23-0.28-0.58-0.52-0.8
		c-1.34-2.88-1.34-5.77,0-8.65c0.23-0.23,0.28-0.58,0.52-0.8c1.69-2.15,3.77-3.58,6.57-3.97c1.15-0.16,2.18,0.08,3.24,0.28
		c0.99,0.19,1.81,0.09,2.46-0.77c0.2-0.27,0.52-0.47,0.8-0.68c0.47-0.35,0.96-0.43,1.43,0c0.5,0.46,0.51,1,0.16,1.54
		c-0.24,0.37-0.53,0.69-0.8,1.05c-0.43,0.58-0.05,0.98,0.31,1.38c0.41,0.45,0.83,0.43,1.25,0.01c3.12-3.14,6.25-6.29,9.36-9.44
		c0.52-0.53,0.61-1.15,0.24-1.81c-0.44-0.33-0.87-0.31-1.32-0.01c-0.76,0.73-1.51,1.47-2.28,2.18c-0.58,0.54-1.24,0.95-1.95,0.23
		c-0.73-0.75-0.18-1.35,0.33-1.92c0.15-0.16,0.31-0.3,0.47-0.46c0.4-0.34,0.22-0.7,0.03-1.06c-0.67-1.71-0.99-3.47-0.56-5.28
		c0.28-1.19-0.1-2-1.08-2.69c-1.22-0.85-2.4-1.76-3.56-2.7c-0.74-0.6-1.51-0.57-2.36-0.4c-2.79,0.53-5.06-0.46-6.71-2.65
		c-1.66-2.22-1.82-4.7-0.56-7.2c1.19-2.37,4.01-3.96,6.46-3.72c2.96,0.29,5.78,2.3,6.1,5.13c0.3,2.66,1.88,3.96,3.75,5.28
		c0.39,0.28,0.82,0.52,1.16,0.86c0.83,0.82,1.66,0.88,2.73,0.37c3.07-1.46,6.14-1.23,9.09,0.37c0.93,0.5,1.62,0.41,2.38-0.21
		c0.44-0.36,0.9-0.72,1.41-0.97c1.71-0.85,2.61-2.13,2.3-4.1c0.32-0.48,0.21-1.1,0.48-1.6c1.18-3.13,4.27-5.24,7.54-5.16
		c3.36,0.09,6.46,2.38,7.47,5.52c0.23,0.72,0.34,1.45,0.31,2.21c-0.03,0.67-0.23,1.28-0.96,1.38c-0.74,0.1-1.09-0.43-1.27-1.08
		c-0.06-0.21-0.1-0.43-0.14-0.64c-0.44-2.43-1.8-4.15-4.2-4.72c-2.56-0.61-4.66,0.32-6.15,2.52c-0.21,0.25-0.29,0.56-0.45,0.83
		c-0.4,1.25-0.25,1.99,1.34,2.21c1.26,0.18,2.05,1.23,2.37,2.51c0.3,0.44,0.29,0.88,0.01,1.31c-0.21,0.89,0.04,1.41,1.03,1.57
		c0.79,0.13,1.71,0.4,1.48,1.45c-0.25,1.14-1.26,1.21-2.11,0.81c-2.89-1.36-4.86,0.38-6.91,1.93c-0.54,0.41-0.8,0.92-0.65,1.6
		c0.45,2.11-0.01,4.1-0.92,6c-0.46,0.96-0.41,1.73,0.34,2.5c0.36,0.37,0.65,0.83,0.93,1.27c1.11,1.77,2.35,2.89,4.78,2.91
		c3.17,0.02,5.77,2.47,6.5,5.24c0.4,0.47,0.05,1.15,0.47,1.62c0.7,4.85-3.68,10.09-9.98,8.67c-0.33-0.22-0.75-0.25-1.08-0.48
		c-3.66-1.29-5.71-5.6-4.46-9.62c0.33-1.06,0.21-1.78-0.52-2.6c-0.9-1.01-1.66-2.15-2.48-3.23c-0.36-0.48-0.76-0.79-1.45-0.63
		c-1.88,0.42-3.74,0.33-5.57-0.3C29.6,36.78,29.22,36.4,28.71,36.71z"/>
	<path class="st0" d="M21.56,37.48c-0.23,0.12-0.45,0.28-0.69,0.35c-0.56,0.18-1.03,0.01-1.35-0.48c-0.32-0.47-0.19-0.9,0.19-1.28
		c0.45-0.44,0.92-0.4,1.4-0.05c0.17,0.13,0.34,0.26,0.51,0.4C21.9,36.8,21.79,37.15,21.56,37.48z"/>
	<path class="st0" d="M58.08,19.08c-0.05,0.62-0.39,0.97-1.01,0.99c-0.62,0.02-1.03-0.3-1.04-0.93c-0.02-0.67,0.35-1.1,1.04-1.08
		C57.68,18.07,57.99,18.48,58.08,19.08z"/>
	<path class="st0" d="M55.56,45.13c-0.45-0.45-0.49-1.03-0.47-1.62C55.48,43.98,55.62,44.53,55.56,45.13z"/>
	<path class="st0" d="M50.64,18.24c0-0.44,0-0.88-0.01-1.31C51.08,17.37,51.08,17.8,50.64,18.24z"/>
	<path class="st0" d="M44.78,11.37c0.02,0.59-0.08,1.14-0.48,1.6C44.27,12.38,44.46,11.86,44.78,11.37z"/>
	<path class="st0" d="M27.13,31.93c0.44-0.43,0.88-0.42,1.32,0.01C28.01,31.94,27.57,31.93,27.13,31.93z"/>
	<path class="st0" d="M23.74,30.9c0.31,0.36,0.4,0.72-0.03,1.06C23.72,31.6,23.73,31.25,23.74,30.9z"/>
	<path class="st0" d="M28.71,36.71c0.5-0.27,0.93-0.13,1.32,0.23C29.59,36.86,29.15,36.79,28.71,36.71z"/>
	<path class="st0" d="M19.72,46.71c-0.31-0.36-0.4-0.71,0.02-1.06C19.73,46.01,19.72,46.36,19.72,46.71z"/>
	<path class="st0" d="M21.56,37.48c0.02-0.35,0.04-0.7,0.06-1.05C22.01,36.81,21.83,37.15,21.56,37.48z"/>
	<path class="st0" d="M44.5,53.32c0.41,0.04,0.77,0.21,1.08,0.48C45.15,53.79,44.81,53.59,44.5,53.32z"/>
	<path class="st0" d="M46.92,12.21c0.05-0.33,0.21-0.6,0.45-0.83C47.22,11.66,47.07,11.93,46.92,12.21z"/>
	<path class="st0" d="M3.42,44.35c-0.09,0.32-0.25,0.6-0.52,0.8C3.08,44.89,3.25,44.62,3.42,44.35z"/>
	<path class="st0" d="M19.24,53.32c0.16-0.27,0.32-0.55,0.48-0.82C19.68,52.84,19.5,53.1,19.24,53.32z"/>
	<path class="st0" d="M2.9,53.8c0.27,0.21,0.43,0.48,0.52,0.8C3.25,54.34,3.08,54.07,2.9,53.8z"/>
	<g>
		<path class="st1" d="M43.36,39.01c-0.11,0.48-0.54,0.65-0.91,0.87c-0.37,0.23-0.69,0.08-0.93-0.21c-1.38-1.64-2.69-3.33-3.88-5.11
			c-0.27-0.41-0.2-0.84,0.18-1.18c0.38-0.33,0.86-0.41,1.2-0.08c1.67,1.62,3,3.51,4.28,5.45C43.35,38.81,43.34,38.91,43.36,39.01z"
			/>
		<g>
			<path class="st2" d="M31.06,33.79c0.02-0.09,0.04-0.18,0.06-0.27c0.27-0.52,0.41-1.05,0-1.57c-0.82-2.01-1.97-2.8-4.04-2.55
				c-1.16,0.14-1.47-0.33-1.54-1.35c-0.29-4.28,1.99-7.5,6.14-8.57c3.49-0.9,7.3,1.15,8.93,4.82c0.27,0.41,0.28,0.91,0.48,1.34
				c0,1.04,0,2.09,0,3.13c-0.2,0.43-0.21,0.93-0.48,1.34c-0.02,0.16-0.04,0.32-0.06,0.48c-0.41,0.48-0.85,0.29-1.3,0.06
				c-2.59-0.04-3.68,0.79-4.19,3.32c-0.15,0.73-0.54,1.05-1.23,1.12c-0.98,0.09-1.92-0.1-2.86-0.3
				C30.36,34.39,31.02,34.12,31.06,33.79z"/>
			<path class="st2" d="M4.23,50.12c0.07-5.43,4.75-8.79,9.48-6.79c2.56,1.08,3.88,3.19,4.06,5.84c0.17,2.48-0.99,4.49-3.05,5.92
				c-0.32,0.22-0.69,0.39-1.03,0.58c-1.76,0.77-3.51,0.76-5.27,0c-1.79-0.8-3.04-2.11-3.72-3.95C4.38,51.24,4.46,50.63,4.23,50.12z"
				/>
			<path class="st2" d="M49.27,51.45c-1.39,0.04-2.8,0.29-4.13-0.4c-2.06-1.07-3.44-3.48-3.12-5.49c0.38-2.45,2.27-4.58,4.34-4.89
				c2.84-0.44,5.16,0.66,6.28,2.97c1.09,2.25,0.64,4.74-1.2,6.5c-0.28,0.27-0.6,0.51-0.9,0.77C50.16,51.17,49.61,51.05,49.27,51.45z
				"/>
			<path class="st2" d="M16.06,8.73c1.52,0.61,2.65,1.61,3.21,3.19c0.45,0.74-0.17,0.84-0.58,0.78c-1.13-0.18-1.89,0.38-2.63,1.07
				c-0.71,0.75-1,1.66-0.85,2.66c0.13,0.91-0.33,1.1-1.06,1.01c-1.49-0.17-2.44-1.07-3.12-2.33c-0.42-0.35-0.27-0.92-0.49-1.34
				c0-0.52,0.01-1.04,0.01-1.56c0.17-0.36,0.16-0.79,0.47-1.09c0.58-1.13,1.53-1.85,2.67-2.36C14.47,8.38,15.26,8.39,16.06,8.73z"/>
			<path class="st3" d="M25.54,20.62c-0.73,0.96-1.45,0.99-2.4,0.18c-1.7-1.44-3.5-2.76-5.25-4.12c-0.34-0.53-0.29-1.05,0.04-1.56
				c0.79-0.33,1.41,0.01,2.04,0.47c1.68,1.22,3.19,2.68,5,3.73C25.19,19.74,26.28,19.77,25.54,20.62z"/>
			<path class="st3" d="M41.93,21.85c-0.68-1.05-0.31-1.75,0.68-2.36c1.23-0.75,2.4-1.61,3.61-2.4c0.57-0.37,1.25-0.69,1.75,0.01
				c0.55,0.78-0.03,1.31-0.63,1.73c-1.46,1.05-2.93,2.07-4.39,3.11C42.57,22.24,42.22,22.32,41.93,21.85z"/>
		</g>
	</g>
	<path class="st0" d="M8.41,55.69c1.76,0.39,3.52,0.38,5.27,0C11.93,56.76,10.17,56.76,8.41,55.69z"/>
	<path class="st0" d="M16.05,13.76c0.42-0.79,1.15-1.12,1.97-1.28c0.46-0.09,0.94-0.11,1.24-0.57c0.52,0.78-0.09,0.96-0.62,0.99
		C17.7,12.97,16.88,13.36,16.05,13.76z"/>
	<path class="st0" d="M16.06,8.73c-0.79,0-1.58,0.01-2.37,0.01C14.47,8.08,15.26,8.09,16.06,8.73z"/>
	<path class="st0" d="M31.12,31.95c0.54,0.52,0.44,1.04,0,1.57C31.12,33,31.12,32.48,31.12,31.95z"/>
	<path class="st0" d="M25.54,20.62c-0.02-0.51-0.33-0.89-0.58-1.3C25.51,19.59,26.28,19.77,25.54,20.62z"/>
	<path class="st0" d="M17.93,15.12c-0.01,0.52-0.03,1.04-0.04,1.56C17.37,16.14,17.44,15.63,17.93,15.12z"/>
	<path class="st0" d="M39.25,30.65c0.43-0.02,0.86-0.04,1.3-0.06C40.14,31.18,39.7,31.04,39.25,30.65z"/>
	<path class="st0" d="M4.23,50.12c0.31,0.49,0.49,1.02,0.46,1.61C4.3,51.26,4.18,50.72,4.23,50.12z"/>
	<path class="st0" d="M41.93,21.85c0.34,0.03,0.68,0.07,1.02,0.1C42.56,22.37,42.22,22.34,41.93,21.85z"/>
	<path class="st0" d="M10.53,13.76c0.16,0.45,0.32,0.9,0.49,1.34C10.62,14.74,10.51,14.27,10.53,13.76z"/>
	<path class="st0" d="M40.61,30.11c0.02-0.5,0.22-0.93,0.48-1.34C41.09,29.28,40.95,29.73,40.61,30.11z"/>
	<path class="st0" d="M41.08,25.64c-0.26-0.41-0.46-0.84-0.48-1.34C40.95,24.68,41.09,25.14,41.08,25.64z"/>
	<path class="st0" d="M11.02,11.11c-0.16,0.36-0.31,0.72-0.47,1.09C10.55,11.77,10.69,11.4,11.02,11.11z"/>
	<path class="st0" d="M49.27,51.45c0.36-0.35,0.79-0.51,1.28-0.55C50.17,51.19,49.74,51.37,49.27,51.45z"/>
	<path class="st0" d="M31.06,33.79c-0.03,0.33-0.07,0.66-0.1,0.99C30.6,34.42,30.8,34.1,31.06,33.79z"/>
</g>
</svg>
